<?xml version="1.0" encoding="UTF-8"?>
<svg width="200" height="200" viewBox="0 0 200 200" fill="none" xmlns="http://www.w3.org/2000/svg">
    <!-- Background -->
    <circle cx="100" cy="100" r="100" fill="#E6E6E6"/>
    
    <!-- Face Shape -->
    <path d="M100 40C77.909 40 60 57.909 60 80C60 102.091 77.909 120 100 120C122.091 120 140 102.091 140 80C140 57.909 122.091 40 100 40Z" fill="#F5D0A9"/>
    
    <!-- Hair -->
    <path d="M100 40C77.909 40 60 57.909 60 80C60 85 61 90 62 95C63 100 65 105 68 110C71 115 75 119 80 122C85 125 90 127 95 128C100 129 105 129 110 128C115 127 120 125 125 122C130 119 134 115 137 110C140 105 142 100 143 95C144 90 145 85 145 80C145 57.909 122.091 40 100 40Z" fill="#4A3728"/>
    
    <!-- Eyes -->
    <ellipse cx="85" cy="85" rx="5" ry="8" fill="#4A3728"/>
    <ellipse cx="115" cy="85" rx="5" ry="8" fill="#4A3728"/>
    
    <!-- Smile -->
    <path d="M85 105C85 105 92 115 100 115C108 115 115 105 115 105" stroke="#4A3728" stroke-width="3" stroke-linecap="round"/>
    
    <!-- Professional Attire -->
    <path d="M60 120C60 120 65 160 100 160C135 160 140 120 140 120" fill="#2563eb"/>
    
    <!-- Necklace -->
    <circle cx="100" cy="130" r="3" fill="#FFD700"/>
</svg> 