<?xml version="1.0" encoding="UTF-8"?>
<svg width="28" height="28" viewBox="0 0 28 28" xmlns="http://www.w3.org/2000/svg">
  <path d="M14,0C6.268,0,0,6.268,0,14s6.268,14,14,14s14-6.268,14-14S21.732,0,14,0z M22,14.3c0,1.1-0.1,2.2-0.1,2.2 s-0.1,0.9-0.4,1.3c-0.4,0.4-0.8,0.4-1,0.4C18.4,18.4,14,18.4,14,18.4s-5.4-0.1-7.1-0.2c-0.5-0.1-1.1,0-1.5-0.4 c-0.3-0.4-0.4-1.3-0.4-1.3S5,15.4,5,14.3v-1.1c0-1.1,0.1-2.2,0.1-2.2s0.1-0.9,0.4-1.3c0.4-0.4,0.8-0.4,1-0.4 C8.6,9.1,14,9.1,14,9.1s4.4,0,7.3,0.2c0.2,0,0.6,0,1,0.4c0.3,0.4,0.4,1.3,0.4,1.3s0.1,1.1,0.1,2.2V14.3z M12,16l6-3l-6-3V16z" fill="currentColor"/>
</svg> 