<?xml version="1.0" encoding="UTF-8"?>
<svg width="48" height="48" viewBox="0 0 48 48" xmlns="http://www.w3.org/2000/svg">
  <circle cx="24" cy="24" r="23" fill="#14281d" stroke="#c2a878" stroke-width="2"/>
  <path d="M24,12 c-4.4,0-8,3.6-8,8 c0,3.1,1.8,5.8,4.4,7.1 V30 c0,0.6,0.4,1,1,1 h5.2c0.6,0,1-0.4,1-1 v-2.9 c2.6-1.3,4.4-4,4.4-7.1 C32,15.6,28.4,12,24,12z M26,28.5 V29 h-4 v-0.5 c-2.5-0.9-4.3-3.3-4.3-6 c0-3.5,2.9-6.4,6.4-6.4 s6.4,2.9,6.4,6.4 C30.3,25.2,28.5,27.6,26,28.5z" fill="#f1f5f2"/>
  <circle cx="24" cy="20" r="2" fill="#6e633d"/>
  <rect x="22" y="31" width="4" height="5" fill="#f1f5f2"/>
</svg> 