<?xml version="1.0" encoding="UTF-8"?>
<svg width="28" height="28" viewBox="0 0 28 28" xmlns="http://www.w3.org/2000/svg">
  <path d="M14,0C6.268,0,0,6.268,0,14s6.268,14,14,14s14-6.268,14-14S21.732,0,14,0z M19,7.5c0.6,0,1,0.4,1,1s-0.4,1-1,1s-1-0.4-1-1 S18.4,7.5,19,7.5z M14,9c2.8,0,5,2.2,5,5s-2.2,5-5,5s-5-2.2-5-5S11.2,9,14,9z M14,11c-1.7,0-3,1.3-3,3s1.3,3,3,3s3-1.3,3-3 S15.7,11,14,11z M22,14.5v-5c0-1.4-1.1-2.5-2.5-2.5h-11C7.1,7,6,8.1,6,9.5v11C6,21.9,7.1,23,8.5,23h11c1.4,0,2.5-1.1,2.5-2.5v-5 V14.5z" fill="currentColor"/>
</svg> 