<?xml version="1.0" encoding="UTF-8"?>
<svg width="28" height="28" viewBox="0 0 28 28" xmlns="http://www.w3.org/2000/svg">
  <path d="M14,0C6.268,0,0,6.268,0,14s6.268,14,14,14s14-6.268,14-14S21.732,0,14,0z M20.7,10.9c0.2,4.6-3.2,9.8-9.3,9.8 c-1.9,0-3.6-0.5-5-1.5c1.7,0.2,3.5-0.3,4.9-1.4c-1.4,0-2.6-1-3.1-2.3c0.5,0.1,1,0.1,1.5-0.1c-1.6-0.3-2.7-1.7-2.6-3.2 c0.4,0.2,0.9,0.4,1.5,0.4c-1.5-1-1.9-2.9-1-4.4c1.6,2,4.1,3.3,6.8,3.4c-0.5-2.1,1.1-4,3.2-4c0.9,0,1.8,0.4,2.4,1 c0.7-0.1,1.5-0.4,2.1-0.8c-0.2,0.8-0.8,1.4-1.4,1.8c0.7-0.1,1.3-0.3,1.9-0.5C21.9,9.8,21.3,10.4,20.7,10.9z" fill="currentColor"/>
</svg> 