<?xml version="1.0" encoding="UTF-8"?>
<svg width="200" height="200" viewBox="0 0 200 200" xmlns="http://www.w3.org/2000/svg">
    <rect width="200" height="200" fill="#ffffff"/>
    <g transform="translate(40, 40)">
        <path d="M60 0C26.88 0 0 26.88 0 60c0 26.52 17.16 49.02 41.04 56.94 3 0.54 4.08-1.32 4.08-2.94 0-1.44-0.06-5.28-0.06-10.32-16.68 3.6-20.22-7.14-20.22-7.14-2.76-6.96-6.72-8.82-6.72-8.82-5.46-3.72 0.42-3.66 0.42-3.66 6.06 0.42 9.24 6.18 9.24 6.18 5.4 9.24 14.16 6.6 17.58 5.04 0.54-3.9 2.1-6.6 3.84-8.1-13.32-1.5-27.36-6.66-27.36-29.64 0-6.54 2.34-11.88 6.18-16.08-0.6-1.5-2.7-7.62 0.6-15.9 0 0 5.04-1.62 16.5 6.18 4.8-1.32 9.9-2.04 15-2.04 5.1 0 10.2 0.72 15 2.04 11.46-7.8 16.5-6.18 16.5-6.18 3.3 8.28 1.2 14.4 0.6 15.9 3.84 4.2 6.18 9.54 6.18 16.08 0 23.04-14.04 28.14-27.42 29.64 2.16 1.86 4.08 5.52 4.08 11.16 0 8.1-0.06 14.58-0.06 16.56 0 1.62 1.08 3.48 4.08 2.94C102.84 109.02 120 86.52 120 60 120 26.88 93.12 0 60 0z" fill="#24292e"/>
    </g>
</svg> 