<?xml version="1.0" encoding="UTF-8"?>
<svg width="200" height="200" viewBox="0 0 200 200" xmlns="http://www.w3.org/2000/svg">
    <rect width="200" height="200" fill="#ffffff"/>
    <g transform="translate(30, 60)">
        <path d="M125.3 40H14.7C6.6 40 0 46.6 0 54.7v30.6C0 93.4 6.6 100 14.7 100h110.6c8.1 0 14.7-6.6 14.7-14.7V54.7c0-8.1-6.6-14.7-14.7-14.7zM35 75c-5.5 0-10-4.5-10-10s4.5-10 10-10 10 4.5 10 10-4.5 10-10 10zm40 0c-5.5 0-10-4.5-10-10s4.5-10 10-10 10 4.5 10 10-4.5 10-10 10zm40 0c-5.5 0-10-4.5-10-10s4.5-10 10-10 10 4.5 10 10-4.5 10-10 10z" fill="#0066B3"/>
    </g>
</svg> 