<?xml version="1.0" encoding="UTF-8"?>
<svg width="200" height="200" viewBox="0 0 200 200" xmlns="http://www.w3.org/2000/svg">
    <rect width="200" height="200" fill="#ffffff"/>
    <g transform="translate(40, 40)">
        <path d="M109.8 20.3L87.6 9.2c-2.2-1.1-4.9-0.8-6.9 0.7L30.1 47.8c-1.7 1.3-2.7 3.3-2.7 5.4v71.4c0 2.1 1 4.1 2.7 5.4l50.6 37.9c2 1.5 4.7 1.8 6.9 0.7l22.2-11.1c2.2-1.1 3.6-3.3 3.6-5.8V26.1c0-2.5-1.4-4.7-3.6-5.8z" fill="#0065A9"/>
        <path d="M89.6 61.5L66.4 84.7l-23.2-17.4c-1.4-1.1-3.4-0.9-4.6 0.4-1.2 1.3-1.1 3.3 0.3 4.4l21.9 16.4-21.9 16.4c-1.4 1.1-1.5 3.1-0.3 4.4 1.2 1.3 3.2 1.5 4.6 0.4l23.2-17.4 23.2-23.2c1.4-1.4 1.4-3.6 0-5-1.4-1.4-3.6-1.4-5 0z" fill="#ffffff"/>
    </g>
</svg> 